<svg version="1.2" xmlns="http://www.w3.org/2000/svg" viewBox="0 0 1543 1365" width="1543" height="1365">
	<title>altair-svg</title>
	<style>
		.s0 { fill: #fa4616 } 
	</style>
	<path id="Layer" fill-rule="evenodd" class="s0" d="m1533.7 1083l-140.9 247.3c-14.9 25.6-44.8 40.5-74.7 32-177.3-44.8-363-66.1-546.7-66.1-183.6 0-367.2 21.3-546.6 66.1-29.9 6.4-59.8-6.4-74.7-32l-141-245.2c-14.9-25.6-10.6-59.7 10.7-81 256.3-270.7 444.2-596.9 546.7-955.1 8.5-27.7 34.1-49 64-49h284c29.9 0 55.5 19.2 64.1 49 102.5 358.2 290.4 684.4 546.6 955.1 19.2 21.3 23.5 53.3 8.5 78.9zm-318.1 125.8c4.3 0 8.5-6.4 6.4-10.7l-316-976.4-2.2-2.1c-2.1-4.3-8.5-4.3-10.6 0l-681.2 763.2c-2.1 2.1-2.1 2.1-2.1 4.3-2.2 4.2 2.1 8.5 6.4 10.6l995 213.2c2.1 0 2.1 0 4.3-2.1z"/>
</svg>