<svg height="100%" width="100%" viewBox="0 0 90 90" xmlns="http://www.w3.org/2000/svg">
    <path d="m11.897 47.154 35.405 35.404c.889.889.93 2.305.121 3.241l-.12.13-3.373 3.373a2.384 2.384 0 0 1-3.372 0L5.153 53.897a2.384 2.384 0 0 1-.121-3.24l.121-.131 3.372-3.372a2.384 2.384 0 0 1 3.372 0ZM52.19 7.717c1.254 1.199 2.82 3.302 3.76 4.655.392.525.627.9.94 1.199.627.602 1.255.753 2.587.378 8.227-2.179 15.432.226 22.326 6.83 9.637 9.239 10.206 20.955-2.018 32.67L56.737 76.494c-1.252 1.201-2.308 1.31-3.562.11L3.04 26.397c-1.255-1.199-1.444-2.065-.19-3.266L18.603 7.35C29.65-3.235 42.318-1.745 52.19 7.717Zm6.267 25.979L47.96 43.756c-1.255 1.202-1.175 2.18.077 3.38l3.76 3.604c1.255 1.2 2.272 1.275 3.527.074v.002L65.82 40.753c3.056-2.927 3.684-5.632 1.098-8.11-2.508-2.401-5.406-1.877-8.462 1.053ZM32.84 21.608l-3.996 3.83c-1.254 1.198-1.175 2.175.08 3.376l3.758 3.606c1.254 1.199 2.274 1.276 3.526.075l3.996-3.83c2.036-1.952 2.35-4.655-.08-6.983-2.35-2.253-5.248-2.026-7.284-.074Z"
          fill="#FF0065" fill-rule="evenodd"/>
</svg>