<?xml version="1.0" encoding="utf-8"?>
<!-- Generator: Adobe Illustrator 27.0.0, SVG Export Plug-In . SVG Version: 6.00 Build 0)  -->
<svg version="1.1" id="Layer_1" xmlns="http://www.w3.org/2000/svg" xmlns:xlink="http://www.w3.org/1999/xlink" x="0px" y="0px"
	 viewBox="0 0 262 294.7" style="enable-background:new 0 0 262 294.7;" xml:space="preserve">
<g id="Layer_2_00000059267939194532701130000014397814325471590309_">
	<g id="Branch">
		<path d="M0,147.2c0-19.9,0.1-39.7,0-59.6C0,76.8,4.6,69,13.9,63.6C48.2,43.9,82.5,24,116.7,4.1c9.4-5.4,18.7-5.5,28.1-0.1
			c34.7,20,69.5,40,104.2,60c8.3,4.8,12.9,12.3,12.9,21.9c0.2,41.1,0.2,82.2,0,123.4c0.1,8.4-4.4,16.1-11.7,20.2
			c-35.6,20.8-71.2,41.4-107,61.9c-7.4,4.4-16.7,4.4-24.1,0C83.3,271,47.7,250.5,12.2,229.8c-7.9-4.6-12-11.9-12-21.2
			c-0.1-20.5,0-41,0-61.5H0z M76.9,145.3h-0.3c0,6.8,0,13.5,0,20.2c-0.1,7.5,2.2,14,8.8,18c11.6,7.1,23.4,13.9,35.3,20.4
			c8.1,4.4,16.4,4.4,24.5-1c9.1-6.1,18.5-11.8,27.6-18c4.8-3.3,9.4-7,13.6-11.1c6.5-6.4,7-13.1,1.8-20.6c-2-2.9-4.3-5.5-6.8-7.9
			c-7.7-7.3-8.5-6.2-1-15.3c7-8.6,6.5-13.7-2.4-20.7c-0.6-0.5-1.2-0.9-1.8-1.3C165,101,154,93.7,142.6,86.8
			c-7.5-4.5-15.4-3.9-22.8,0.4c-11.4,6.7-22.6,13.7-34,20.4c-6.1,3.6-8.8,9-8.9,15.8C76.8,130.8,76.9,138.1,76.9,145.3L76.9,145.3z
			 M64.2,106.2c3.6-1.3,6.6-2,9.3-3.4c4.3-2.2,8.4-4.9,12.7-7.2c5.4-2.9,7.2-5.8,5.8-11.9c-1.7-7.4-3.8-14.7-6.2-21.9
			c-1.3-3.6-3.2-7-5.6-10.1c-4.6-6-10.6-7.4-17.2-3.8c-11.2,6.2-22.2,12.9-33.3,19.4c-1.1,0.7-2,1.5-2.9,2.4
			c-4.3,4.3-4.2,11.3,0.1,15.6c0.4,0.4,0.9,0.8,1.4,1.2c6.7,4.8,13.4,9.6,20.6,13.6C53.7,102.8,59.2,104.3,64.2,106.2L64.2,106.2z
			 M9.9,128c1,6.4,1.8,13.9,3.3,21.3c1.1,4.8,4.1,9,8.5,11.4c10.9,6.4,21.7,12.8,32.6,19.1c4,2.3,6.6,1.7,7.8-2.7
			c3.1-11.6,4.6-23.2-4.5-33.2s-18.2-20.2-27.5-30.1c-3-3-6.4-5.7-10-7.8c-5.4-3.4-8.4-2.1-9.2,4.3C10.3,115.8,10.3,121.3,9.9,128z
			 M133.2,248.4l0.7,0.1c0,2.6-0.2,5.3,0.1,7.9c0.2,2.7,0.7,5.4,1.6,8c2.6,8.1,6.6,8.9,12.4,2.8c10.7-11.4,21.2-22.9,32.2-34
			c10.1-10.1,11-22.4,9.9-35.5c-0.2-2.7-1.9-4-4.8-2.7c-4.9,2.4-10,4.5-14.8,7.2c-8.4,4.7-16.5,10-25,14.4
			c-5.3,2.7-8.5,6.6-9.5,12.2C134.7,235.2,134.1,241.8,133.2,248.4z M251.5,191.1h0.1c0-1.9,0-3.8,0-5.6s0.2-3.7,0.1-5.6
			c-0.1-5.6-3.1-7.9-8.3-5.9c-4.1,1.6-8.6,3.4-11.6,6.4C221,191,210.6,202,200.6,213.3c-5.4,6.1-7.4,13.7-6.9,22
			c0.3,4.4,2.5,7.1,7,7.2c2.5,0.1,4.9-0.4,7.1-1.5c9.6-5.1,19.1-10.3,28.4-15.9c10.2-6.1,16-14.9,15.2-27.2
			C251.4,195.6,251.5,193.4,251.5,191.1L251.5,191.1z M96.7,226.9v0.5c-4.2,0-8.5-0.2-12.7,0.1c-5.2,0.3-8.1,3.1-8.3,8.3
			c-0.1,4.2,0.1,8.5,0.7,12.7c0.5,3.6,1.8,7,5.3,9c8.7,5,17.3,10,26,14.9c2.3,1.2,4.8,2.1,7.3,2.7c5.6,1.2,9.3-1,9.9-6.6
			c0.9-8.8,1.4-17.6,1.6-26.5c0.2-8-4.3-12.9-12.2-13.7C108.4,227.6,102.5,227.3,96.7,226.9z M179.6,58.5c-5.6,0.3-6.8,1.8-4.5,6.8
			c0.6,1.5,1.4,2.9,2.3,4.3c5.3,7.4,10.5,15,16.1,22.1c2.4,3,5.8,5.4,9.1,7.6c3,2,6.2,1.8,9.5-0.1c9.4-5.4,18.9-10.7,28.4-16
			c1.4-0.8,2.8-1.7,4-2.8c2.3-2.3,1.9-4.8-1-6.4c-1.1-0.6-2.3-1-3.5-1.3c-7.6-1.9-15.2-3.9-22.9-5.6
			C204.7,64.2,192.1,61.4,179.6,58.5z M48.6,221.4v0.1c1.9-0.1,3.8-0.1,5.6-0.3c5.2-0.6,6.2-2.2,2.9-6.4
			c-5.7-7.6-11.8-14.8-18.3-21.8c-6-6.3-12.5-12.2-19.3-17.6c-5.1-4.1-8.4-2.4-8.7,4.1c-0.4,8.5-0.5,17-0.5,25.5
			c0.1,2.2,0.6,4.5,1.4,6.6c1.9,5.5,5.9,8.3,11.9,8.6C31.9,220.5,40.2,220.9,48.6,221.4z M251.3,120.6c0-4.4,0.1-8.7,0-13.1
			c-0.1-6.2-2.7-7.8-8.4-4.9c-1.5,0.8-3,1.8-4.4,2.8c-5.4,4.2-10.9,8.3-16.3,12.6c-5.6,4.6-11.2,9.2-16.4,14.2
			c-4.5,4.4-3.9,6.7,1.9,8.9c11.4,4.2,23.2,4.8,35.1,2.8c5.9-1,8.3-4.4,8.4-10.6C251.3,129.1,251.3,124.8,251.3,120.6z M130.3,11.8
			c-9.8,1.2-17.9,6.4-25.6,12c-2.3,1.7-1.8,5.4,0.6,7.6c1.3,1.3,2.9,2.4,4.6,3.2c11.1,4.5,22.1,9,33.3,13.1c3,1.1,6.7,1,10,0.6
			c4.1-0.5,4.9-2.8,2.7-6.3c-5.1-8.3-10.3-16.5-15.5-24.7C138,13.6,134.9,11.4,130.3,11.8L130.3,11.8z M208,145.7
			c-9.6-0.5-10.5,0.8-7.9,7.1c2.4,5.9,4.4,11.9,4.1,18.4c-0.2,3.1,1.5,4.2,4.6,3.5c1.2-0.3,2.4-0.7,3.5-1.3
			c8.9-4.4,17.9-8.7,26.8-13.2c2.2-1.1,4.3-2.5,6.3-4c1.1-0.8,1.6-2.3,2.5-3.4c-1.1-0.7-2.3-1.2-3.6-1.6c-3.2-0.5-6.5-0.6-9.7-1.1
			C224.9,148.6,215,146.9,208,145.7z M20,88.3l-0.8,0.8c1.2,2,2.1,4.2,3.5,6c9.8,12.2,19.6,24.2,29.5,36.3c1.4,1.6,2.9,3.1,4.6,4.4
			c3.3,2.4,5.9,1.6,6.4-2.5c1.6-14,0.7-20-10.5-27.2c-8.9-5.6-18.1-10.6-27.2-15.7C23.7,89.6,21.9,88.9,20,88.3z M71.9,203.3
			c0-6.1-3.4-10-8-12.9c-10.7-6.7-21.5-13.2-32.3-19.6c-2.1-1.1-4.3-2.1-6.5-2.8c-0.8-0.1-1.6-0.1-2.4,0.1c0,0.9,0.1,1.8,0.4,2.7
			c0.4,0.8,1,1.4,1.6,2c7.3,7.9,14.6,15.8,21.9,23.6c5,5.3,10,10.5,15.2,15.6c3.7,3.6,7.2,2.6,8.8-2.2
			C71.1,207.6,71.6,205.5,71.9,203.3z M124.3,70.3c-0.7-3.8-2.1-6.3-4.9-8c-8.1-4.6-16.2-9.3-24.4-13.8c-1.5-0.8-3.4-0.7-5.1-1.1
			c-0.3,1.9-1.1,4-0.7,5.7c1.5,6,3.5,12,5.7,17.8c1.6,3.6,3.7,7,6.2,10.1c2,2.7,4.9,3.1,8,1.3c3.7-2.2,7.5-4,11-6.4
			C121.8,74.6,122.9,72.2,124.3,70.3z M120.7,221.4l1-2.2l-3.2-1.8c-11.5-6.6-22.9-13.2-34.5-19.6c-3.5-2-6.4-0.8-7.6,3.1
			c-0.8,3-1.4,6.1-1.5,9.2c-0.6,7.6,4.1,12.7,11.8,12.8c6.5,0.1,13,0.1,19.5-0.1C111,222.5,115.8,221.9,120.7,221.4z M161,66.1
			c-4.5,1-7.9,1.6-11.2,2.7c-2.1,0.7-4.1,2.1-6.1,3.1c1.4,2,2.4,4.6,4.3,5.8c9.7,6.1,19.6,11.8,29.5,17.5c1.6,0.8,3.3,1.1,5.1,1
			c2.6,0,3.9-1.6,3.4-4.2c-0.2-1.4-0.7-2.7-1.5-3.8c-4.9-6.1-9.6-12.4-15-18C167.3,67.9,163.5,67.2,161,66.1z M101.6,40.7l-3.9,2.1
			c0.8,1,1.3,2.4,2.3,3.1c5,3.6,10.1,6.9,15.4,10c5.9,3.2,12,6,18.3,8.5c5.4,2.2,10.1,0,14-3.6c1.1-1,1.8-3.8,1.2-4.8
			c-1.3-2.3-3.3-4.1-5.7-5.2c-4.3-1.6-8.9-2.4-13.4-3.4C120.4,45,111.1,42.9,101.6,40.7z M48.2,223.9c-4.5,0.4-9.4,0.6-14.2,1.2
			c-1.1,0.1-2,0.8-2.6,1.7c0,1.1,0.6,2.1,1.4,2.7c9.5,5.5,19,11,28.7,16.2c2.7,1.5,6,0.9,7.9-1.5c3.3-4.1,2.3-8.8,1.2-13.3
			c-0.9-3.7-3.8-5.5-7.5-5.9C58.3,224.4,53.4,224.2,48.2,223.9z M243.1,89l-0.6-0.9c-2,0.6-3.9,1.3-5.7,2.2
			c-9.7,5.7-19.2,11.6-28.9,17.3c-6.7,4-9.6,10.3-10.8,17.6c-0.3,1.6,0.8,3.4,1.3,5.2c1.7-0.5,3.9-0.5,5-1.5
			c12.6-12,25-24.1,37.4-36.3C241.6,91.4,242.4,90.3,243.1,89z M229,174.9l-0.7-1.1c-2,0.3-4,0.9-5.9,1.6
			c-6.9,3.2-13.7,6.6-20.5,9.9c-5.8,2.8-8.1,7.6-7.2,13.8c0.5,2.5,1.2,4.9,2,7.3c2.4-1,5.5-1.4,7.2-3.2c7.9-8,15.6-16.4,23.2-24.8
			C227.9,177.3,228.5,176.1,229,174.9z M190.4,242.6c-0.4-1.5-0.5-4-1.3-4.3c-1.4-0.4-3.2,0.4-4.8,0.9c-1.3,0.6-2.4,1.3-3.4,2.3
			c-7.2,6.4-14.4,12.7-21.4,19.2c-2.5,2.3-4.7,4.8-6.8,7.4c-0.8,1-0.8,2.7-1.1,4.1c1.5-0.2,3.2,0,4.4-0.7c8.6-4.8,17-9.9,25.7-14.6
			C187.4,253.8,190.3,249.2,190.4,242.6L190.4,242.6z M223.4,63.1l0.3-1c-0.7-0.8-1.6-1.5-2.5-2.1c-9.8-5.1-19.6-10.2-29.6-15
			c-1.9-0.9-4.4-0.8-6.6-0.5c-3.3,0.4-7.3,4.2-7.1,6.3c0.4,3.6,3.5,4.5,6.4,5.5c0.7,0.3,1.4,0.5,2.1,0.6c11,2.1,22,4.2,33,6.2
			C220.9,63.2,222.2,63.2,223.4,63.1z M170.7,45.7c1.6-0.2,3.1-0.6,4.6-1.1c4.4-1.7,5.3-7.2,1.3-9.9c-7.6-5.1-15.5-10.1-23.4-14.9
			c-1.3-0.8-3.2-0.4-4.9-0.6c0.2,1.5,0,3.3,0.8,4.5c3.6,5.7,7.4,11.2,11.1,16.9C162.6,44.2,165.9,45.5,170.7,45.7z"/>
		<path d="M129.9,147.9c9.2,0,18.4-0.2,27.7,0.1c7.1,0.2,12,4.5,15.6,10.3c2,2.8,1.6,6.6-0.9,8.9c-3.1,3.4-6.6,6.4-10.4,9
			c-6.8,4.2-13.9,7.9-20.9,11.6c-5,2.8-11.1,2.9-16.2,0.3c-8.3-4.2-16.4-8.8-24.3-13.9c-6-3.9-8.6-14.5-6.2-21.3
			c1.5-4.2,5.2-4.8,8.8-4.8c9-0.1,18,0,26.9,0L129.9,147.9z"/>
		<path d="M123.9,138.9c-8.4,0-16.7,0-25.1,0c-4.9,0-6.3-1.6-7-6.4c-1.3-8.5,1.3-14.9,8.9-19.2s14.8-8.9,22.3-13.1
			c7.1-4,14.3-4,21.3,0.4s14.1,8.5,20.6,13.5c5.7,4.4,5.5,8.9,0.9,14.5c-4.4,5.3-9.8,8.3-16.8,8.6c-8.4,0.3-16.7,0.8-25.1,1.2
			L123.9,138.9z"/>
	</g>
</g>
</svg>
