<?xml version="1.0" encoding="utf-8"?>
<!-- Generator: Adobe Illustrator 27.0.0, SVG Export Plug-In . SVG Version: 6.00 Build 0)  -->
<svg version="1.1" id="Layer_1" xmlns="http://www.w3.org/2000/svg" xmlns:xlink="http://www.w3.org/1999/xlink" x="0px" y="0px"
	 viewBox="0 50 268 375" width="100%" height="100%">
<style type="text/css">
	.st0{fill:#FFFFFF;}
</style>
<path d="M133.2,174c-3.2,8.5-6.5,16.9-9.7,25.4c-8.1,21.6-16.2,43.2-24.4,64.8c-2.8,7.5-4.9,9-12.9,9.1c-12.2,0-24.3,0.1-36.5,0
	c-10.2-0.1-14.4-6.4-10.4-15.9c18.6-44.4,37.3-88.8,55.9-133.3c6.8-16.2,18.9-24.3,36.6-23.9c4.1,0.1,8.3,0.2,12.4,0.8
	c14,1.9,23.2,9.9,28.5,22.8c7.6,18.4,15.4,36.8,23.1,55.1c10.9,26,21.8,52.1,32.8,78.1c4,9.4-0.1,15.8-10.4,16
	c-12.2,0.2-24.3,0.2-36.5,0.2c-7.1,0-9.2-1.5-11.8-8.4c-10.9-28.6-21.8-57.1-32.7-85.7c-0.7-1.8-1.5-3.5-2.3-5.2
	C134.2,173.9,133.7,173.9,133.2,174L133.2,174z M134,164.1c1.1,2.7,1.7,4.1,2.3,5.7c12,31.3,23.9,62.6,35.8,94
	c1.8,4.8,4.7,7.2,10,7.1c11.7-0.3,23.3-0.4,35,0c7.3,0.3,12.5-5.1,9-13.4c-18.8-43.8-37-87.8-55.5-131.7c-2-4.7-4.6-9.4-8.1-13
	c-11.2-11.4-25.6-11.4-40.1-9.2c-13,1.9-20.2,10.8-24.9,22.1c-18.6,44.2-37.2,88.5-55.7,132.8c-3.4,8-0.3,12.4,8.6,12.4
	c12,0,24-0.2,36,0.1c5.6,0.1,8.6-2.2,10.4-7.3c3.9-10.8,8-21.5,12.1-32.2C117,209.3,125.3,187.3,134,164.1L134,164.1z"/>
<path class="st0" d="M134,164.1c-8.8,23.3-17,45.3-25.3,67.3c-4,10.7-8.2,21.4-12.1,32.2c-1.8,5-4.8,7.4-10.4,7.3
	c-12-0.3-24-0.1-36-0.1c-8.9,0-11.9-4.3-8.6-12.4c18.5-44.3,37-88.5,55.7-132.8c4.7-11.2,12-20.1,24.9-22.1
	c14.5-2.2,28.8-2.2,40.1,9.2c3.5,3.6,6.1,8.3,8.1,13c18.6,43.9,36.7,87.9,55.5,131.7c3.5,8.2-1.7,13.6-9,13.4
	c-11.6-0.4-23.3-0.3-35,0c-5.4,0.1-8.2-2.2-10-7.1c-11.9-31.4-23.8-62.7-35.8-94C135.7,168.2,135.1,166.7,134,164.1L134,164.1z
	 M48.3,263.2c2.1,0.1,3.7,0.2,5.3,0.2c9.8,0,19.7-0.2,29.5,0.1c4.1,0.1,6-1.1,7.5-5.1c12.9-34.5,26-68.9,39.1-103.3
	c1.1-3,2.7-5.7,4.1-8.6l1.8,0.1c2.3,5.8,4.7,11.5,6.8,17.3c12.1,31.8,24.1,63.6,36.3,95.4c0.6,1.6,2.6,3.9,3.9,4
	c12.5,0.3,24.9,0.2,37.8,0.2c-0.5-1.5-0.7-2.6-1.1-3.7c-18.6-44.4-37.2-88.8-55.8-133.1c-3.4-8.1-9.3-13.3-18-14.9
	c-4.7-0.8-9.6-1-14.4-1.1c-13.3-0.2-22.1,5.8-27.2,18.3c-17.7,43.1-35.7,86.1-53.7,129.2C49.5,259.6,49,261.2,48.3,263.2L48.3,263.2
	z"/>
<path d="M48.3,263.2c0.7-2,1.2-3.5,1.9-5c17.9-43,36-86,53.7-129.2c5.1-12.5,13.9-18.6,27.2-18.3c4.8,0.1,9.7,0.2,14.4,1.1
	c8.7,1.6,14.6,6.8,18,14.9c18.6,44.4,37.2,88.7,55.8,133.1c0.4,1,0.7,2.1,1.1,3.7c-12.8,0-25.3,0.1-37.8-0.2c-1.4,0-3.3-2.3-3.9-4
	c-12.2-31.8-24.2-63.6-36.3-95.4c-2.2-5.8-4.6-11.6-6.8-17.3l-1.8-0.1c-1.4,2.9-3,5.6-4.1,8.6c-13.1,34.4-26.2,68.8-39.1,103.3
	c-1.5,4-3.4,5.2-7.5,5.1c-9.8-0.3-19.6-0.1-29.5-0.1C52,263.4,50.4,263.3,48.3,263.2L48.3,263.2z"/>
</svg>
