<?xml version="1.0" encoding="UTF-8"?>
<svg id="Layer_1" xmlns="http://www.w3.org/2000/svg" height="100%" width="100%" viewBox="0 0 300 0">
    <defs>
        <style>.cls-1{fill:#fff;}</style>
    </defs>
<!--    <path class="cls-1"-->
<!--          d="M0,375C0,250,0,125,0,0c500,0,1000,0,1500,0V375c-500,0-1000,0-1500,0Zm335.94-111.82c.09-1.93,.21-3.4,.21-4.87,.01-41.21,.01-82.43,0-123.64,0-1.66-.08-3.33-.26-4.97-.75-6.76-4.12-11.79-10.1-15.08-20.96-11.51-46.03-2.33-54.12,19.89-10.44,28.69-20.76,57.42-31.3,86.08-.82,2.22-2.95,3.96-4.47,5.92-1.36-1.96-2.73-3.91-4.07-5.88-.18-.26-.21-.63-.32-.94-10.49-29.03-20.99-58.04-31.44-87.08-2.74-7.61-7.11-13.84-14.32-17.86-7.29-4.06-15.2-4.64-23.26-4.01-14.19,1.1-26.57,5.95-26.3,27.3,.51,39.88,.15,79.77,.15,119.65,0,1.78,0,3.56,0,5.42h38.57c.11-1.26,.28-2.23,.27-3.2-.24-23.93-.5-47.85-.77-71.78-.11-9.8-.36-19.6-.34-29.4,0-1.42,1.19-2.84,1.82-4.26,1.08,1.05,2.33,1.98,3.18,3.19,.74,1.06,1.06,2.42,1.51,3.67,7.45,20.77,14.84,41.56,22.34,62.32,3.44,9.52,6.9,19.03,10.67,28.41,2.08,5.17,5.33,9.52,11,11.54,17.2,6.12,30.22,.27,36.76-16.65,.54-1.39,1.02-2.81,1.52-4.21,9.88-27.48,19.75-54.97,29.7-82.42,.81-2.24,2.25-4.26,3.39-6.38,.93,.2,1.86,.4,2.79,.6-.38,36.14-1.33,72.28-1.11,108.65h38.29Zm151.75-29.54c-6.11,0-11.9,0-17.68,0-20.15,0-40.3,.04-60.45-.02-8.07-.03-10.06-1.88-10.45-9.89-.27-5.47-.11-10.96-.12-16.45q0-6.57,6.36-6.57c24.64,0,49.29,0,73.93,0h5.84v-28.18h-86.11c0-7.09-.18-13.71,.04-20.31,.3-8.83,2.33-10.63,11.27-10.64,23.65-.01,47.29,0,70.94,0,1.78,0,3.55,0,5.57,0v-29.48c-2.08,0-3.87,0-5.65,0-31.81,0-63.61,0-95.42,0-1.66,0-3.33,.05-4.99,.2-14.28,1.25-20.92,8.19-20.98,22.59-.13,35.23-.13,70.46,0,105.69,.05,14.59,7.46,21.92,22.15,22.53,1.5,.06,3,.07,4.49,.07,31.97,0,63.94,0,95.92,0h5.32v-29.55Zm105.43,29.59v-120.9h56.09v-29.8h-151.13v30.09h56.17v120.61h38.86Zm342.64-76.58c1.32,11.28,1.98,21.42,3.76,31.35,4.17,23.26,17.1,38.89,40.92,44.09,19.27,4.21,38.6,4.34,57.96,.38,23.04-4.71,36.88-18.76,41.8-41.49,4.77-22.04,4.71-44.2-.06-66.24-4.87-22.48-18.38-36.63-41.26-41.41-18.15-3.79-36.33-3.7-54.56-.68-23.57,3.9-38.46,17.45-43.68,40.63-2.54,11.27-3.4,22.92-4.88,33.36Zm295.41,1.39c0,18.27-.04,36.53,.01,54.8,.04,14.28,6.02,20.43,20.31,20.53,18.8,.14,37.61,.2,56.41-.02,25.57-.31,42.65-12.64,50.05-37,7.45-24.52,7.64-49.5,.96-74.2-6.98-25.78-25.45-39.56-52.34-39.81-18.29-.17-36.58,.15-54.87,.35-14.98,.16-20.48,5.7-20.51,20.56-.04,18.27-.01,36.53,0,54.8Zm-299.15-75.41c-5.15,0-9.94,0-14.73,0-23.8,.02-47.6-.08-71.4,.11-12.45,.1-18.22,6.13-18.47,18.52-.02,.83,0,1.66-.01,2.49,0,41.36,0,82.72,0,124.08,0,1.76,0,3.51,0,5.35h11.67v-69.82h67.08v-10.25h-67.45c-.09-2.06-.22-3.67-.22-5.29-.02-14.62-.03-29.23,0-43.85,.02-9.99,1.48-11.45,11.61-11.46,25.3-.02,50.6,0,75.9,0,1.94,0,3.87,0,6.04,0v-9.88Zm177.24-.18c0,8.31,0,16.26,0,24.21,0,37.2-.02,74.4,.01,111.61,0,9.92,4.61,14.64,14.5,15.09,1.16,.05,2.33,.07,3.49,.07,27.96,0,55.91,0,83.87,0,1.6,0,3.21-.16,4.77-.24v-9.88h-5.81c-25.46,0-50.92,0-76.38,0-11.15,0-12.42-1.24-12.42-12.12,0-40.86,0-81.71,0-122.57v-6.15h-12.03Zm-396.08,61.51c.54-.01,1.08-.02,1.62-.04,.78,1.75,1.64,3.46,2.33,5.25,10.9,28.55,21.77,57.11,32.67,85.66,2.61,6.82,4.7,8.36,11.84,8.37,12.16,.02,24.31,0,36.47-.2,10.31-.17,14.37-6.56,10.42-15.98-10.93-26.04-21.83-52.09-32.75-78.13-7.71-18.38-15.5-36.73-23.11-55.15-5.32-12.88-14.45-20.9-28.47-22.78-4.1-.55-8.27-.69-12.41-.8-17.69-.44-29.76,7.66-36.57,23.91-18.61,44.43-37.3,88.83-55.89,133.27-3.99,9.54,.17,15.85,10.39,15.93,12.16,.1,24.31,.07,36.47,.01,8-.03,10.11-1.56,12.93-9.06,8.12-21.61,16.22-43.23,24.36-64.84,3.2-8.49,6.47-16.95,9.71-25.42Z"/>-->
<!--    <path d="M335.94,263.18h-38.29c-.21-36.37,.73-72.51,1.11-108.65-.93-.2-1.86-.4-2.79-.6-1.15,2.12-2.58,4.14-3.39,6.38-9.95,27.45-19.81,54.94-29.7,82.42-.51,1.4-.98,2.82-1.52,4.21-6.54,16.92-19.55,22.77-36.76,16.65-5.68-2.02-8.92-6.37-11-11.54-3.78-9.38-7.24-18.9-10.67-28.41-7.5-20.76-14.89-41.55-22.34-62.32-.45-1.25-.77-2.61-1.51-3.67-.85-1.21-2.1-2.14-3.18-3.19-.64,1.42-1.82,2.84-1.82,4.26-.02,9.8,.23,19.6,.34,29.4,.28,23.93,.53,47.85,.77,71.78,0,.97-.16,1.94-.27,3.2h-38.57c0-1.86,0-3.64,0-5.42,0-39.89,.37-79.78-.15-119.65-.27-21.35,12.11-26.2,26.3-27.3,8.06-.63,15.98-.05,23.26,4.01,7.21,4.02,11.58,10.25,14.32,17.86,10.45,29.04,20.96,58.06,31.44,87.08,.11,.31,.14,.68,.32,.94,1.34,1.97,2.71,3.92,4.07,5.88,1.52-1.96,3.66-3.7,4.47-5.92,10.54-28.65,20.86-57.39,31.3-86.08,8.08-22.22,33.16-31.4,54.12-19.89,5.98,3.29,9.35,8.32,10.1,15.08,.18,1.65,.26,3.31,.26,4.97,.01,41.21,.01,82.43,0,123.64,0,1.47-.12,2.95-.21,4.87Z"/>-->
<!--    <path d="M487.69,233.64v29.55h-5.32c-31.97,0-63.94,0-95.92,0-1.5,0-3-.01-4.49-.07-14.69-.61-22.1-7.93-22.15-22.53-.12-35.23-.12-70.46,0-105.69,.05-14.4,6.7-21.34,20.98-22.59,1.66-.15,3.32-.19,4.99-.2,31.81-.01,63.61,0,95.42,0,1.78,0,3.57,0,5.65,0v29.48c-2.02,0-3.8,0-5.57,0-23.65,0-47.29,0-70.94,0-8.94,0-10.97,1.8-11.27,10.64-.23,6.6-.04,13.22-.04,20.31h86.11v28.18h-5.84c-24.64,0-49.29,0-73.93,0q-6.36,0-6.36,6.57c0,5.48-.15,10.98,.12,16.45,.39,8.01,2.38,9.87,10.45,9.89,20.15,.06,40.3,.02,60.45,.02,5.79,0,11.57,0,17.68,0Z"/>-->
<!--    <path d="M593.13,263.23h-38.86v-120.61h-56.17v-30.09h151.13v29.8h-56.09v120.9Z"/>-->
<!--    <path d="M935.76,186.65c1.48-10.45,2.34-22.09,4.88-33.36,5.22-23.18,20.12-36.73,43.68-40.63,18.23-3.02,36.4-3.11,54.56,.68,22.88,4.78,36.4,18.93,41.26,41.41,4.77,22.03,4.83,44.2,.06,66.24-4.92,22.72-18.76,36.77-41.8,41.49-19.35,3.96-38.69,3.83-57.96-.38-23.82-5.2-36.74-20.83-40.92-44.09-1.78-9.93-2.45-20.07-3.76-31.35Zm135.75,3.56c-1.24-11.77-1.73-21.42-3.35-30.87-3.71-21.55-13.66-32.27-33.57-36.36-15.3-3.14-30.71-2.91-46.18-.63-20.53,3.02-32.42,14.61-36.33,34.8-4.1,21.14-4.17,42.26,.43,63.3,3.9,17.84,14.57,28.97,32.97,32.27,16.73,3,33.39,3.09,50.08-.29,16.28-3.3,27.07-12.73,30.7-28.92,2.59-11.59,3.74-23.5,5.24-33.31Z"/>-->
<!--    <path d="M1231.17,188.04c0-18.27-.03-36.53,0-54.8,.03-14.86,5.54-20.4,20.51-20.56,18.29-.2,36.58-.51,54.87-.35,26.89,.25,45.37,14.03,52.34,39.81,6.68,24.69,6.49,49.68-.96,74.2-7.4,24.36-24.48,36.69-50.05,37-18.8,.23-37.6,.16-56.41,.02-14.29-.11-20.27-6.25-20.31-20.53-.06-18.27-.01-36.53-.01-54.8Zm49.49-64.61c0-.31,0-.61,0-.92-9.16,0-18.32-.06-27.48,.02-7.31,.06-9.95,2.66-9.96,9.95-.04,37.23-.04,74.46,0,111.68,0,6.77,2.14,9.02,9.02,9.06,18.65,.11,37.31,.42,55.95-.13,21.81-.65,32.93-9.59,39.08-30.39,5.09-17.2,4.75-34.85,3.11-52.41-.7-7.5-2.75-15.05-5.35-22.15-5.14-14.08-15.32-23.14-30.49-24.51-11.21-1.01-22.58-.2-33.89-.2Z"/>-->
<!--    <path d="M932.02,112.63v9.88c-2.17,0-4.1,0-6.04,0-25.3,0-50.6-.02-75.9,0-10.13,0-11.6,1.47-11.61,11.46-.02,14.62-.01,29.23,0,43.85,0,1.62,.13,3.23,.22,5.29h67.45v10.25h-67.08v69.82h-11.67c0-1.84,0-3.6,0-5.35,0-41.36,0-82.72,0-124.08,0-.83,0-1.66,.01-2.49,.25-12.39,6.02-18.42,18.47-18.52,23.8-.19,47.6-.09,71.4-.11,4.79,0,9.58,0,14.73,0Z"/>-->
<!--    <path d="M1109.26,112.45h12.03v6.15c0,40.86,0,81.71,0,122.57,0,10.88,1.27,12.12,12.42,12.12,25.46,0,50.92,0,76.38,0h5.81v9.88c-1.56,.08-3.16,.24-4.77,.24-27.96,.01-55.91,.01-83.87,0-1.16,0-2.33-.01-3.49-.07-9.89-.45-14.49-5.17-14.5-15.09-.03-37.2-.01-74.4-.01-111.61,0-7.95,0-15.9,0-24.21Z"/>-->
<!--    <path d="M713.18,173.96c-3.24,8.47-6.52,16.93-9.71,25.42-8.14,21.61-16.23,43.23-24.36,64.84-2.82,7.5-4.93,9.02-12.93,9.06-12.16,.05-24.31,.09-36.47-.01-10.23-.09-14.38-6.4-10.39-15.93,18.59-44.44,37.28-88.84,55.89-133.27,6.8-16.24,18.88-24.35,36.57-23.91,4.14,.1,8.31,.25,12.41,.8,14.02,1.88,23.15,9.89,28.47,22.78,7.61,18.42,15.4,36.77,23.11,55.15,10.92,26.04,21.82,52.09,32.75,78.13,3.95,9.42-.1,15.81-10.42,15.98-12.15,.2-24.31,.21-36.47,.2-7.13,0-9.23-1.54-11.84-8.37-10.9-28.55-21.77-57.11-32.67-85.66-.68-1.78-1.55-3.5-2.33-5.25-.54,.01-1.08,.02-1.62,.04Zm.83-9.91c1.08,2.66,1.73,4.15,2.31,5.67,11.95,31.33,23.94,62.65,35.8,94.01,1.82,4.81,4.65,7.18,10.02,7.06,11.65-.26,23.31-.43,34.95,0,7.29,.27,12.54-5.14,9-13.37-18.84-43.77-36.97-87.84-55.55-131.71-1.97-4.66-4.6-9.42-8.11-12.97-11.24-11.41-25.58-11.36-40.09-9.2-12.96,1.93-20.19,10.82-24.93,22.06-18.63,44.22-37.16,88.48-55.68,132.75-3.37,8.05-.33,12.36,8.58,12.38,11.98,.04,23.97-.2,35.95,.1,5.61,.14,8.56-2.25,10.37-7.27,3.88-10.78,8.02-21.46,12.06-32.18,8.29-22.04,16.58-44.08,25.33-67.34Z"/>-->
<!--    <path class="cls-1"-->
<!--          d="M1071.51,190.21c-1.5,9.81-2.65,21.72-5.24,33.31-3.63,16.2-14.42,25.62-30.7,28.92-16.69,3.38-33.35,3.29-50.08,.29-18.4-3.3-29.07-14.43-32.97-32.27-4.6-21.04-4.53-42.16-.43-63.3,3.91-20.19,15.8-31.78,36.33-34.8,15.47-2.28,30.88-2.51,46.18,.63,19.91,4.09,29.86,14.8,33.57,36.36,1.63,9.45,2.11,19.1,3.35,30.87Z"/>-->
<!--    <path class="cls-1"-->
<!--          d="M1280.66,123.43c11.3,0,22.68-.81,33.89,.2,15.17,1.37,25.36,10.44,30.49,24.51,2.59,7.11,4.65,14.66,5.35,22.15,1.64,17.56,1.98,35.21-3.11,52.41-6.15,20.81-17.28,29.75-39.08,30.39-18.63,.55-37.3,.24-55.95,.13-6.88-.04-9.01-2.29-9.02-9.06-.05-37.23-.05-74.46,0-111.68,0-7.29,2.65-9.89,9.96-9.95,9.16-.08,18.32-.02,27.48-.02,0,.31,0,.61,0,.92Z"/>-->
<!--    <path class="cls-1"-->
<!--          d="M714.01,164.05c-8.75,23.26-17.04,45.3-25.33,67.34-4.03,10.72-8.18,21.4-12.06,32.18-1.81,5.02-4.75,7.41-10.37,7.27-11.98-.31-23.97-.06-35.95-.1-8.91-.03-11.94-4.33-8.58-12.38,18.52-44.27,37.04-88.53,55.68-132.75,4.74-11.24,11.97-20.13,24.93-22.06,14.51-2.16,28.85-2.21,40.09,9.2,3.5,3.56,6.13,8.32,8.11,12.97,18.58,43.88,36.72,87.94,55.55,131.71,3.54,8.23-1.71,13.64-9,13.37-11.63-.44-23.3-.26-34.95,0-5.37,.12-8.2-2.25-10.02-7.06-11.86-31.37-23.85-62.68-35.8-94.01-.58-1.52-1.22-3.01-2.31-5.67Zm-85.74,99.14c2.12,.09,3.72,.22,5.32,.22,9.82,.02,19.65-.19,29.46,.11,4.12,.13,6.03-1.12,7.52-5.1,12.86-34.5,25.97-68.92,39.08-103.33,1.13-2.96,2.73-5.73,4.11-8.59l1.78,.1c2.29,5.77,4.65,11.52,6.85,17.33,12.08,31.79,24.08,63.6,36.26,95.35,.63,1.64,2.56,3.93,3.94,3.96,12.45,.31,24.92,.18,37.75,.18-.46-1.51-.7-2.62-1.13-3.66-18.6-44.37-37.2-88.75-55.84-133.11-3.39-8.07-9.34-13.35-18-14.92-4.7-.85-9.57-1-14.37-1.08-13.31-.24-22.09,5.84-27.21,18.34-17.68,43.14-35.74,86.12-53.65,129.16-.62,1.49-1.12,3.03-1.86,5.04Z"/>-->
    <path d="M0,0c.74-2.01,1.24-3.55,1.86-5.04,17.91-43.04,35.97-86.02,53.65-129.16,5.12-12.5,13.9-18.59,27.21-18.34,4.8,.09,9.67,.23,14.37,1.08,8.67,1.57,14.61,6.85,18,14.92,18.63,44.36,37.24,88.73,55.84,133.11,.43,1.03,.67,2.15,1.13,3.66-12.83,0-25.3,.13-37.75-.18-1.37-.03-3.31-2.32-3.94-3.96-12.18-31.75-24.18-63.57-36.26-95.35-2.21-5.81-4.57-11.55-6.85-17.33l-1.78-.1c-1.38,2.86-2.98,5.64-4.11,8.59-13.1,34.41-26.21,68.83-39.08,103.33-1.49,3.98-3.4,5.23-7.52,5.1-9.81-.3-19.64-.09-29.46-.11-1.6,0-3.2-.13-5.32-.22Z"/>
</svg>